<svg viewBox="0 0 100 100" fill="none" xmlns="http://www.w3.org/2000/svg">
  <circle cx="50" cy="30" r="20" stroke="#2563EB" stroke-width="4" />
  <line x1="50" y1="5" x2="50" y2="15" stroke="#2563EB" stroke-width="4" />
  <line x1="50" y1="45" x2="50" y2="55" stroke="#2563EB" stroke-width="4" />
  <line x1="25" y1="30" x2="35" y2="30" stroke="#2563EB" stroke-width="4" />
  <line x1="65" y1="30" x2="75" y2="30" stroke="#2563EB" stroke-width="4" />
  <path d="M43 23 L57 37 M57 23 L43 37" stroke="#2563EB" stroke-width="4" stroke-linecap="round" />
  <circle cx="50" cy="20" r="3.5" fill="#10B981" />
  <circle cx="50" cy="40" r="3.5" fill="#1D4ED8" />
  <circle cx="40" cy="30" r="3.5" fill="#06B6D4" />
  <circle cx="60" cy="30" r="3.5" fill="#10B981" />
  
  <circle cx="37" cy="20" r="4" stroke="#e81cff" stroke-width="2" />
  <circle cx="63" cy="20" r="4" fill="#06B6D4" />
  <circle cx="37" cy="40" r="4" stroke="#06B6D4" stroke-width="2" />
  <circle cx="63" cy="40" r="4" stroke="#e81cff" stroke-width="2" />

  <path d="M22 45 V85 L35 70 V55 L50 70 L65 55 V70 L78 85 V45 M35 70 L50 85 L65 70" stroke="#2563EB" stroke-width="6" stroke-linecap="square" stroke-linejoin="miter" />
  <rect x="18" y="55" width="5" height="7" fill="#2563EB" />
  <rect x="77" y="65" width="5" height="7" fill="#2563EB" />
</svg>
